<svg xmlns="http://www.w3.org/2000/svg" viewBox="0 0 243 747"><g fill="#ff8787"><path d="M81 468h-9v36h9zM90 468h-9v36h9zM90 504h-9v9h9zM99 495h-9v18h9zM99 513h-9v18h9zM117 531H81v9h36zM108 513h-9v18h9zM117 522h-9v9h9zM162 468h-9v36h9zM171 468h-9v36h9zM171 504h-9v9h9zM180 495h-9v18h9zM180 513h-9v18h9zM198 531h-36v9h36zM189 513h-9v18h9zM198 519h-9v12h9z"/></g><path fill="#63c74d" d="M108 0H63v18h45zM63 9h-9v9h9z"/><path fill="#5a6988" d="M126 18H27v18h99zM27 27h-9v9h9zM54 36H9v9h45zM117 54H54v36h63z"/><path fill="#3a4466" d="M117 90H54v36h63z"/><path fill="#ead4aa" d="M189 72h-72v45h72zM171 117h-54v18h54zM189 36h-72v18h72zM171 18h-45v18h45zM135 54h-18v18h18zM189 54h-18v18h18z"/><path fill="#3a4466" d="M117 126H90v9h27zM171 54h-36v18h36z"/><path fill="#c0cbdc" d="M90 36H54v18h36z"/><path fill="#e4a672" d="M171 135H90v18h81zM189 117h-9v18h9zM180 126h-9v9h9z"/><path fill="#ead4aa" d="M180 117h-9v9h9z"/><path fill="#3a4466" d="M90 126H54v45h36zM171 153H90v18h81zM189 135h-18v18h18z"/><path fill="#fee761" d="M207 207h-18v18h18z"/><path fill="#f07a2e" d="M135 234h-18v9h18zM126 225h-18v9h18z"/><path fill="#feae34" d="M225 225h-99v9h99zM234 234h-99v9h99zM243 243h-99v9h99zM243 252h-90v162h90z"/><path fill="#f07a2e" d="M144 243h-18v9h18z"/><path fill="#fee761" d="M189 252h-18v9h18zM225 252h-18v9h18z"/><path fill="#127389" d="M135 396h-27v18h27zM108 414H90v18h18zM90 432H72v18h18zM72 450H54v18h18zM54 468H36v18h18zM36 486H18v18h18zM18 486H9v18h9zM9 486H0v36h9z"/><path fill="#0aa5c4" d="M45 504H9v9h36zM27 513H9v9h18z"/><path fill="#127389" d="M135 378h-27v18h27zM108 396H90v18h18zM90 414H72v18h18zM72 432H54v18h18zM54 450H36v18h18zM36 468H18v18h18z"/><path fill="#5fd8fa" d="M135 360h-27v18h27zM108 378H90v18h18zM90 396H72v18h18zM72 414H54v18h18zM54 432H36v18h18zM36 450H18v18h18zM18 450H0v18h18zM18 468H0v18h18zM135 342h-27v18h27zM108 360H90v18h18zM90 378H72v18h18zM72 396H54v18h18zM54 414H36v18h18zM36 432H18v18h18z"/><path fill="#0aa5c4" d="M135 252H0v90h135zM108 342H90v18h18zM90 342H72v36h18zM72 342H54v54h18zM54 342H36v72h18zM36 342H18v90h18zM18 342H0v108h18zM126 243H0v9h126zM117 234H9v9h108zM108 225H18v9h90zM54 486H36v18h18zM63 495h-9v9h9zM153 468H99v36h54zM99 468h-9v27h9zM72 468H54v27h18z"/><path fill="#fee761" d="M207 270h-18v9h18zM207 261h-9v9h9zM189 243h-9v9h9zM225 243h-9v9h9z"/><path fill="#f07a2e" d="M153 252h-18v180h18z"/><path fill="#5a6988" d="M36 108H0v27h36zM18 144H9v9h9z"/><path fill="#5a6988" d="M18 145v-9H0v9z"/><path fill="#3a4466" d="M54 117H27v9h27zM54 108H36v9h18z"/><path fill="#5a6988" d="M117 36H90v18h27zM189 18h-9v18h9zM180 18h-9v9h9zM198 36h-9v9h9z"/><path fill="#ead4aa" d="M180 27h-9v9h9z"/><path fill="#5a6988" d="M207 45h-18v90h18z"/><path fill="#0aa5c4" d="M225 18h-18v207h18zM207 0h-18v36h18zM216 9h-9v9h9zM207 36h-9v9h9z"/><path fill="#3a4466" d="M54 126H18v9h36zM45 135H18v9h27z"/><path fill="#5a6988" d="M54 45H0v63h54z"/><path fill="#66e38c" d="M189 0h-81v18h81zM153 171H54v18h99z"/><path fill="#f07a2e" d="M135 189H54v18h81zM189 207H54v18h135z"/><path fill="#66e38c" d="M180 153h-9v18h9zM189 153h-9v9h9z"/><path fill="#feae34" d="M189 162h-9v9h9z"/><path fill="#66e38c" d="M162 171h-9v18h9zM171 171h-9v9h9z"/><path fill="#feae34" d="M171 180h-9v9h9zM144 198h-9v9h9zM189 207h-9v9h9z"/><path fill="#f07a2e" d="M144 189h-9v9h9z"/><path fill="#66e38c" d="M198 135h-9v18h9zM207 135h-9v9h9z"/><path fill="#feae34" d="M207 144h-9v9h9zM207 189h-63v18h63zM189 171h-18v18h18zM207 153h-18v36h18z"/><path fill="#3a4466" d="M54 99h-9v9h9z"/><path fill="#f07a2e" d="M189 423h-9v9h9zM189 414h-9v9h9zM180 423h-9v9h9z"/><path fill="#feae34" d="M189 450h-45v9h45z"/><path fill="#f07a2e" d="M189 459H72v9h117zM144 450H72v9h72zM135 441H90v9h45zM135 432H90v9h45zM135 414h-27v18h27z"/><path fill="#feae34" d="M180 414h-27v9h27z"/><path fill="#f07a2e" d="M225 414h-9v18h9zM216 423h-9v9h9zM207 396h-9v18h9zM198 405h-9v9h9zM171 396h-9v18h9zM162 405h-9v9h9zM243 396h-9v18h9zM234 405h-9v9h9z"/><path fill="#feae34" d="M216 414h-27v9h27z"/><path fill="#f07a2e" d="M207 441h-9v9h9zM207 432h-9v9h9zM198 441h-9v9h9z"/><path fill="#feae34" d="M198 432h-27v9h27z"/><path fill="#f07a2e" d="M171 441h-9v9h9zM171 432h-9v9h9zM162 441h-9v9h9z"/><path fill="#feae34" d="M162 432h-27v9h27zM171 423h-18v9h18zM207 423h-18v9h18zM189 441h-18v9h18zM153 441h-18v9h18z"/><path fill="#0aa5c4" d="M18 747h9V522h-9zM27 747h9V513h-9z"/><path fill="#66e38c" d="M36 729h9V513h-9zM45 729h9V504h-9z"/><path fill="#0aa5c4" d="M54 711h9V504h-9zM90 675h9V540h-9zM99 675h9V540h-9zM126 639h9V504h-9zM135 639h9V504h-9z"/><path fill="#66e38c" d="M108 657h9V540h-9zM117 657h9V504h-9z"/><path fill="#0aa5c4" d="M63 711h9V495h-9z"/><path fill="#66e38c" d="M72 693h9V504h-9zM81 693h9V540h-9zM81 531h9v-18h-9zM108 522h9v-18h-9z"/><path fill="#0aa5c4" d="M99 513h9v-9h-9z"/><path fill="#fee761" d="M207 198h-9v9h9zM189 216h-9v9h9z"/></svg>