<svg xmlns="http://www.w3.org/2000/svg" viewBox="0 0 243 747"><g fill="#d64b5c"><path d="M0 216h9v-9H0zM0 225h9v-9H0zM0 234h9v-9H0zM0 243h9v-9H0zM0 252h9v-9H0zM0 261h9v-9H0zM0 270h9v-9H0zM0 279h9v-9H0zM0 288h9v-9H0zM0 297h9v-9H0zM9 207h9v-9H9zM9 216h9v-9H9zM9 225h9v-9H9zM9 234h9v-9H9zM9 243h9v-9H9zM9 252h9v-9H9zM9 261h9v-9H9zM9 270h9v-9H9zM9 279h9v-9H9zM9 288h9v-9H9zM0 306h9v-9H0zM0 315h9v-9H0zM0 324h9v-9H0zM0 333h9v-9H0zM0 342h9v-9H0zM0 351h9v-9H0zM0 360h9v-9H0zM0 369h9v-9H0zM0 378h9v-9H0zM0 387h9v-9H0zM9 297h9v-9H9zM9 306h9v-9H9zM9 315h9v-9H9zM9 324h9v-9H9zM9 333h9v-9H9zM9 342h9v-9H9zM9 351h9v-9H9zM9 360h9v-9H9zM9 369h9v-9H9zM9 378h9v-9H9zM0 396h9v-9H0zM9 387h9v-9H9zM9 396h9v-9H9zM9 405h9v-9H9zM189 198h18v-9h-18zM216 324h18v-9h-18zM216 333h9v-9h-9zM198 324h9v-9h-9zM207 342h9v-9h-9zM189 333h9v-18h-9zM189 360h9v-9h-9zM225 360h9v-9h-9zM207 378h9v-9h-9zM198 387h9v-18h-9zM225 351h18v-18h-18zM189 351h18v-18h-18zM207 369h18v-18h-18zM225 387h18v-18h-18zM189 396h9v-27h-9zM225 450h9v-18h-9zM207 396h27v-9h-27zM234 450h9v-45h-9zM198 414h9v-9h-9zM216 423h9v-9h-9zM207 432h9v-18h-9zM216 441h9v-9h-9zM225 423h9v-18h-9zM198 405h27v-9h-27zM180 207h36v-9h-36zM180 216h45v-9h-45zM189 225h36v-9h-36zM189 234h45v-9h-45zM189 243h54v-9h-54zM189 315h54v-72h-54z"/></g><g fill="#fea319"><path d="M144 90h9V72h-9zM153 99h9V72h-9zM171 108h9v-9h-9zM180 117h9V99h-9zM189 117h18V99h-18zM198 126h9v-9h-9zM207 117h18V99h-18zM207 135h18v-18h-18zM180 63h36v-9h-36zM198 72h27v-9h-27zM198 99h27V72h-27zM162 99h36V63h-36zM171 63h9v-9h-9z"/></g><g fill="#fea319"><path d="M144 468h9v-36h-9zM135 468h9v-36h-9zM135 477h9v-9h-9zM126 477h9v-18h-9zM126 495h9v-18h-9zM108 504h36v-9h-36zM117 495h9v-18h-9zM108 495h9v-9h-9zM45 468h9v-36h-9zM36 468h9v-36h-9zM36 477h9v-9h-9zM27 477h9v-18h-9zM27 495h9v-18h-9zM9 504h36v-9H9zM18 495h9v-18h-9zM9 495h9v-12H9z"/></g><g fill="#a092bd"><path d="M90 414h9v-9h-9zM90 405h9v-9h-9zM99 414h9v-9h-9zM99 405h9v-9h-9zM36 432h9v-9h-9zM36 423h9v-9h-9zM45 432h9v-9h-9zM45 423h9v-18h-9zM126 414h9v-9h-9zM126 405h9v-9h-9zM135 414h9v-9h-9zM126 423h27v-9h-27zM135 432h18v-9h-18zM135 405h9v-9h-9zM162 414h9v-9h-9zM162 405h9v-9h-9zM171 414h9v-9h-9zM171 405h9v-9h-9zM36 405h9v-9h-9zM36 414h9v-9h-9z"/></g><g fill="#3a4466"><path d="M108 63h18v-9h-18zM108 54h18v-9h-18zM108 45h18v-9h-18z"/></g><g fill="#d64b5c"><path d="M153 9h9V0h-9zM144 72h9v-9h-9zM144 99h9v-9h-9zM171 117h9v-9h-9zM144 9h9V0h-9zM135 9h9V0h-9zM126 9h9V0h-9zM117 9h9V0h-9zM108 9h9V0h-9zM99 9h9V0h-9zM90 9h9V0h-9zM81 18h9V9h-9zM153 54h9v-9h-9zM108 36h9v-9h-9zM126 63h9V36h-9zM117 36h18v-9h-18zM90 18h9V9h-9zM90 27h9v-9h-9zM81 27h9v-9h-9zM72 27h9v-9h-9zM45 108h9v-9h-9zM36 99h9v-9h-9zM36 90h9v-9h-9zM45 99h9v-9h-9zM54 117h9v-9h-9zM54 108h9v-9h-9zM63 126h9v-18h-9zM63 99h9v-9h-9zM54 189h9v-9h-9zM54 180h9v-9h-9zM63 189h9v-9h-9zM63 180h9v-9h-9zM72 207h9v-9h-9zM72 198h9v-9h-9zM81 216h9v-18h-9zM81 198h9v-9h-9zM90 153h9v-9h-9zM90 144h9v-9h-9zM99 153h9v-9h-9zM99 144h9v-9h-9zM72 135h72V63H72zM81 189h18v-9H81zM90 180h9v-9h-9zM99 189h9v-9h-9zM99 180h9v-9h-9zM99 171h18v-9H99zM108 162h9v-9h-9zM117 171h9v-9h-9zM117 162h9v-9h-9zM99 207h18v-9H99zM108 198h9v-9h-9zM117 216h9v-18h-9zM117 198h9v-9h-9zM126 153h9v-9h-9zM126 144h9v-9h-9zM135 153h9v-9h-9zM135 144h9v-9h-9zM108 153h9v-9h-9zM108 144h9v-9h-9zM117 153h9v-9h-9zM117 144h9v-9h-9zM117 189h18v-9h-18zM126 180h9v-9h-9zM135 189h9v-9h-9zM135 180h9v-9h-9zM135 171h18v-9h-18zM144 162h9v-9h-9zM153 171h9v-9h-9zM153 162h9v-9h-9zM72 63h18V45H72zM72 45h18V27H72zM54 72h18v-9H54zM54 63h18V45H54zM90 63h18V45H90zM90 45h18V27H90zM153 45h18V27h-18zM153 27h18V9h-18zM135 63h18V45h-18zM135 45h18V27h-18zM171 36h18V18h-18zM135 27h18V9h-18zM117 27h18V9h-18zM99 27h18V9H99zM135 207h18v-9h-18zM144 198h9v-9h-9zM153 216h9v-18h-9zM153 198h9v-9h-9z"/><g><path d="M144 153h18v-18h-18zM144 135h18v-18h-18zM162 153h18v-18h-18zM162 135h18v-18h-18zM144 117h27V99h-27z"/></g><path d="M153 189h18v-9h-18zM162 180h9v-9h-9zM171 189h18v-9h-18zM171 180h9v-9h-9zM63 81h9v-9h-9zM63 171h27v-9H63zM72 162h18v-9H72zM54 153h36v-18H54z"/></g><g fill="#4d529e"><path d="M18 216h9v-9h-9zM18 225h9v-9h-9zM18 234h9v-9h-9zM18 243h9v-9h-9zM18 252h9v-9h-9zM18 261h9v-9h-9zM18 270h9v-9h-9zM18 279h9v-9h-9zM18 288h9v-9h-9zM18 297h9v-9h-9zM27 207h9v-9h-9zM18 207h9v-9h-9zM27 198h9v-9h-9zM27 216h9v-9h-9zM27 225h9v-9h-9zM27 234h9v-9h-9zM27 243h9v-9h-9zM27 252h9v-9h-9zM27 261h9v-9h-9zM27 270h9v-9h-9zM27 279h9v-9h-9zM27 288h9v-9h-9zM18 306h9v-9h-9zM18 315h9v-9h-9zM18 324h9v-9h-9zM18 333h9v-9h-9zM18 342h9v-9h-9zM18 351h9v-9h-9zM18 360h9v-9h-9zM18 369h9v-9h-9zM18 378h9v-9h-9zM18 387h9v-9h-9zM27 297h9v-9h-9zM27 306h9v-9h-9zM27 315h9v-9h-9zM27 324h9v-9h-9zM27 333h9v-9h-9zM27 342h9v-9h-9zM27 351h9v-9h-9zM27 360h9v-9h-9zM27 369h9v-9h-9zM27 378h9v-9h-9zM18 396h9v-9h-9zM27 387h9v-9h-9zM27 396h9v-9h-9zM27 405h9v-9h-9zM18 405h9v-9h-9zM27 414h9v-9h-9zM18 414h9v-9h-9zM36 216h9v-9h-9zM36 225h9v-9h-9zM36 234h9v-9h-9zM36 243h9v-9h-9zM36 252h9v-9h-9zM36 261h9v-9h-9zM36 270h9v-9h-9zM36 279h9v-9h-9zM36 288h9v-9h-9zM36 297h9v-9h-9zM45 207h9v-9h-9zM36 207h9v-9h-9zM36 180h9v-9h-9zM36 189h9v-9h-9zM36 198h9v-9h-9zM36 171h9v-9h-9zM36 144h9v-9h-9zM36 153h9v-9h-9zM36 162h9v-9h-9zM36 135h9v-9h-9zM36 126h9v-9h-9zM45 180h9v-9h-9zM45 189h9v-9h-9zM45 171h9v-9h-9zM45 144h9v-9h-9zM45 153h9v-9h-9zM45 162h9v-9h-9zM45 135h9v-9h-9zM45 126h9v-9h-9zM36 117h9v-9h-9zM36 108h9v-9h-9zM45 117h9v-9h-9zM54 135h9v-9h-9zM54 126h9v-9h-9zM63 135h9v-9h-9zM54 207h9v-9h-9zM54 198h9v-9h-9zM63 207h9v-9h-9zM63 198h9v-9h-9zM45 198h9v-9h-9zM45 216h27v-9H45zM45 225h9v-9h-9zM45 234h9v-9h-9zM45 243h9v-9h-9zM45 252h9v-9h-9zM45 261h9v-9h-9zM45 270h9v-9h-9zM45 279h9v-9h-9zM45 288h9v-9h-9zM36 306h9v-9h-9zM36 315h9v-9h-9zM36 324h9v-9h-9zM36 333h9v-9h-9zM36 342h9v-9h-9zM36 351h9v-9h-9zM36 360h9v-9h-9zM36 369h9v-9h-9zM36 378h9v-9h-9zM36 387h9v-9h-9zM45 297h9v-9h-9zM45 306h9v-9h-9zM45 315h9v-9h-9zM45 324h9v-9h-9zM45 333h9v-9h-9zM45 342h9v-9h-9zM45 351h9v-9h-9zM45 360h9v-9h-9zM45 369h9v-9h-9zM45 378h9v-9h-9zM36 396h9v-9h-9zM45 387h9v-9h-9zM45 396h9v-9h-9zM45 405h9v-9h-9zM27 423h9v-9h-9zM54 171h9v-9h-9zM54 162h9v-9h-9zM63 162h9v-9h-9z"/></g><g fill="#ffa3a3"><path d="M198 333h18v-9h-18zM198 396h9v-9h-9zM234 324h9v-9h-9zM207 324h9v-9h-9zM225 333h18v-9h-18zM216 342h9v-9h-9zM198 360h9v-9h-9zM207 351h18v-9h-18zM189 369h18v-9h-18zM225 369h9v-9h-9zM234 369h9v-18h-9zM216 387h9v-18h-9zM207 387h9v-9h-9zM234 396h9v-9h-9zM225 405h18v-9h-18zM207 414h18v-9h-18zM216 432h18v-9h-18z"/></g><g fill="#4d529e"><path d="M54 396h18v-9H54zM54 387h9v-9h-9zM54 405h27v-9H54zM90 396h9v-9h-9zM90 387h9v-9h-9zM99 396h9v-9h-9zM126 396h9v-9h-9zM126 387h9v-9h-9zM135 396h9v-9h-9zM162 396h9v-9h-9zM162 387h9v-9h-9zM126 459h9v-36h-9zM171 396h9v-9h-9zM54 414h36v-9H54zM81 477h45v-9H81zM81 486h38v-9H81zM108 414h9v-9h-9zM108 405h9v-9h-9zM117 414h9v-9h-9zM144 414h9v-9h-9zM144 405h9v-9h-9zM153 414h9v-9h-9zM180 414h9v-9h-9zM180 405h9v-27h-9zM189 414h9v-9h-9zM153 459h54v-45h-54zM153 486h45v-27h-45zM54 468h72v-54H54zM189 405h9v-9h-9z"/></g><g fill="#4d529e"><path d="M180 135h9v-9h-9zM180 144h9v-9h-9zM180 153h9v-9h-9zM180 180h9v-27h-9zM180 126h9v-9h-9zM72 189h9v-9h-9zM72 180h9v-9h-9zM81 180h9v-9h-9zM90 171h9v-9h-9zM90 162h9v-9h-9zM99 162h9v-9h-9zM90 216h9v-18h-9zM90 198h9v-9h-9zM99 198h9v-9h-9zM108 189h9v-9h-9zM108 180h9v-9h-9zM117 180h9v-9h-9zM126 171h9v-9h-9zM126 162h9v-9h-9zM135 162h9v-9h-9zM126 216h9v-18h-9zM126 198h9v-9h-9zM135 198h9v-9h-9zM144 189h9v-9h-9zM144 180h9v-9h-9zM153 180h9v-9h-9zM162 171h9v-9h-9zM162 162h9v-9h-9zM171 171h9v-9h-9zM171 162h9v-9h-9zM171 207h9v-9h-9zM162 216h9v-27h-9zM171 198h18v-9h-18z"/></g><g fill="#4d529e"><path d="M63 45h9v-9h-9zM63 36h9v-9h-9zM54 45h9v-9h-9zM45 63h9v-9h-9zM45 54h9v-9h-9zM36 63h9v-9h-9zM45 90h9v-9h-9zM63 108h9v-9h-9zM36 81h9v-9h-9zM36 72h9v-9h-9zM54 99h9v-9h-9zM54 90h9v-9h-9zM63 90h9v-9h-9zM45 81h9v-9h-9zM54 81h9v-9h-9zM45 72h9v-9h-9z"/></g><path fill="#ffa3a3" d="M54 378h126V216H54z"/><path fill="#ffce51" d="M72 396h18v-9H72zM63 387h18v-9H63zM90 405v-9h-9v9zM81 387h9v-9h-9zM108 396h9v-9h-9zM99 387h18v-9H99zM117 405h9v-18h-9zM117 387h9v-9h-9zM144 396h9v-9h-9zM135 387h18v-9h-18zM171 387h9v-9h-9zM180 378h9V216h-9zM81 216v-9h-9v9zM180 216v-9h-9v9zM116 216v-9H98v9zM152 216v-9h-18v9zM153 405h9v-18h-9zM153 387h9v-9h-9z"/><g fill="#a092bd"><path d="M153 72h9v-9h-9zM153 63h9v-9h-9zM162 63h9v-9h-9zM162 54h9v-9h-9zM171 54h27V36h-27zM198 54h9v-9h-9z"/></g><path fill="#4d529e" d="M135 495h9v-18h-9zM144 504h9v-36h-9zM153 504h9v-18h-9zM162 504h9v-18h-9z"/><path fill="#ffa3a3" d="M72 639h9V468h-9z"/><path fill="#d64b5c" d="M90 684h9V486h-9zM171 711h9V495h-9z"/><path fill="#ffa3a3" d="M180 657h9V486h-9z"/><path fill="#d64b5c" d="M81 684h9V486h-9zM117 729h9V594h-9z"/><path fill="#ffa3a3" d="M153 747h9V504h-9z"/><path fill="#d64b5c" d="M135 747h9V603h-9z"/><path fill="#ffa3a3" d="M99 711h9V486h-9zM135 603h9v-99h-9zM117 594h9v-90h-9zM126 738h9V504h-9zM108 711h9V504h-9z"/><path fill="#d64b5c" d="M162 711h9V504h-9z"/><path fill="#ffa3a3" d="M144 747h9V504h-9z"/><path fill="#4d529e" d="M171 495h9v-9h-9z"/></svg>