<svg xmlns="http://www.w3.org/2000/svg" viewBox="0 0 243 747"><g fill="#62f0e9"><path d="M243 216h-9v-9h9zM243 225h-9v-9h9zM243 234h-9v-9h9zM243 243h-9v-9h9zM243 252h-9v-9h9zM243 261h-9v-9h9zM243 270h-9v-9h9zM243 279h-9v-9h9zM243 288h-9v-9h9zM243 297h-9v-9h9zM234 207h-9v-9h9zM234 216h-9v-9h9zM234 225h-9v-9h9zM234 234h-9v-9h9zM234 243h-9v-9h9zM234 252h-9v-9h9zM234 261h-9v-9h9zM234 270h-9v-9h9zM234 279h-9v-9h9zM234 288h-9v-9h9zM243 306h-9v-9h9zM243 315h-9v-9h9zM243 324h-9v-9h9zM243 333h-9v-9h9zM243 342h-9v-9h9zM243 351h-9v-9h9zM243 360h-9v-9h9zM243 369h-9v-9h9zM243 378h-9v-9h9zM243 387h-9v-9h9zM234 297h-9v-9h9zM234 306h-9v-9h9zM234 315h-9v-9h9zM234 324h-9v-9h9zM234 333h-9v-9h9zM234 342h-9v-9h9zM234 351h-9v-9h9zM234 360h-9v-9h9zM234 369h-9v-9h9zM234 378h-9v-9h9zM243 396h-9v-9h9zM234 387h-9v-9h9zM234 396h-9v-9h9zM234 405h-9v-9h9zM54 198H36v-9h18zM27 324H9v-9h18zM27 333h-9v-9h9zM45 324h-9v-9h9zM36 342h-9v-9h9zM54 333h-9v-18h9zM54 360h-9v-9h9zM18 360H9v-9h9zM36 378h-9v-9h9zM45 387h-9v-18h9zM18 351H0v-18h18zM54 351H36v-18h18zM36 369H18v-18h18zM18 387H0v-18h18zM54 396h-9v-27h9zM18 450H9v-18h9zM36 396H9v-9h27zM9 450H0v-45h9zM45 414h-9v-9h9zM27 423h-9v-9h9zM36 432h-9v-18h9zM27 441h-9v-9h9zM18 423H9v-18h9zM45 405H18v-9h27zM63 207H27v-9h36zM63 216H18v-9h45zM54 225H18v-9h36zM54 234H9v-9h45zM54 243H0v-9h54zM54 315H0v-72h54z"/></g><path fill="#feae34" d="M99 90h-9V72h9zM90 99h-9V72h9zM72 108h-9v-9h9zM63 117h-9V99h9zM54 117H36V99h18zM45 126h-9v-9h9zM36 117H18V99h18zM36 135H18v-18h18z"/><path fill="#fff159" d="M189 378H63V216h126z"/><path fill="#feae34" d="M63 63H27v-9h36zM45 72H18v-9h27zM45 99H18V72h27zM81 99H45V63h36zM72 63h-9v-9h9zM171 396h-18v-9h18zM180 387h-18v-9h18zM153 405v-9h9v9zM162 387h-9v-9h9zM135 396h-9v-9h9zM144 387h-18v-9h18zM126 405h-9v-18h9zM126 387h-9v-9h9zM99 396h-9v-9h9zM108 387H90v-9h18zM72 387h-9v-9h9zM63 378h-9V216h9zM162 216v-9h9v9zM63 216v-9h9v9zM127 216v-9h18v9zM91 216v-9h18v9zM90 405h-9v-18h9zM90 387h-9v-9h9z"/><g fill="#f6757a"><path d="M90 72h-9v-9h9zM90 63h-9v-9h9zM81 63h-9v-9h9zM81 54h-9v-9h9zM72 54H45V36h27zM45 54h-9v-9h9zM99 468h-9v-36h9zM108 468h-9v-36h9zM108 477h-9v-9h9zM117 477h-9v-18h9zM117 495h-9v-18h9zM135 504H99v-9h36zM126 495h-9v-18h9zM135 495h-9v-9h9zM198 468h-9v-36h9zM207 468h-9v-36h9zM207 477h-9v-9h9zM216 477h-9v-18h9zM216 495h-9v-18h9zM234 504h-36v-9h36zM225 495h-9v-18h9zM234 495h-9v-12h9z"/></g><g fill="#8b9bb4"><path d="M153 414h-9v-9h9zM153 405h-9v-9h9zM144 414h-9v-9h9zM144 405h-9v-9h9zM207 432h-9v-9h9zM207 423h-9v-9h9zM198 432h-9v-9h9zM198 423h-9v-18h9zM117 414h-9v-9h9zM117 405h-9v-9h9zM108 414h-9v-9h9zM117 423H90v-9h27zM108 432H90v-9h18zM108 405h-9v-9h9zM81 414h-9v-9h9zM81 405h-9v-9h9zM72 414h-9v-9h9zM72 405h-9v-9h9zM207 405h-9v-9h9zM207 414h-9v-9h9z"/></g><g fill="#3a4466"><path d="M135 63h-18v-9h18zM135 54h-18v-9h18zM135 45h-18v-9h18z"/></g><g fill="#62f0e9"><path d="M90 9h-9V0h9zM99 72h-9v-9h9zM99 99h-9v-9h9zM72 117h-9v-9h9zM99 9h-9V0h9zM108 9h-9V0h9zM117 9h-9V0h9zM126 9h-9V0h9zM135 9h-9V0h9zM144 9h-9V0h9zM153 9h-9V0h9zM162 18h-9V9h9zM90 54h-9v-9h9zM135 36h-9v-9h9zM117 63h-9V36h9zM126 36h-18v-9h18zM153 18h-9V9h9zM153 27h-9v-9h9zM162 27h-9v-9h9zM171 27h-9v-9h9zM198 108h-9v-9h9zM207 99h-9v-9h9zM207 90h-9v-9h9zM198 99h-9v-9h9zM189 117h-9v-9h9zM189 108h-9v-9h9zM180 126h-9v-18h9zM180 99h-9v-9h9zM189 189h-9v-9h9zM189 180h-9v-9h9zM180 189h-9v-9h9zM180 180h-9v-9h9zM171 207h-9v-9h9zM171 198h-9v-9h9zM162 216h-9v-18h9zM162 198h-9v-9h9zM153 153h-9v-9h9zM153 144h-9v-9h9zM144 153h-9v-9h9zM144 144h-9v-9h9zM171 135H99V63h72zM162 189h-18v-9h18zM153 180h-9v-9h9zM144 189h-9v-9h9zM144 180h-9v-9h9zM144 171h-18v-9h18zM135 162h-9v-9h9zM126 171h-9v-9h9zM126 162h-9v-9h9zM144 207h-18v-9h18zM135 198h-9v-9h9zM126 216h-9v-18h9zM126 198h-9v-9h9zM117 153h-9v-9h9zM117 144h-9v-9h9zM108 153h-9v-9h9zM108 144h-9v-9h9zM135 153h-9v-9h9zM135 144h-9v-9h9zM126 153h-9v-9h9zM126 144h-9v-9h9zM126 189h-18v-9h18zM117 180h-9v-9h9zM108 189h-9v-9h9zM108 180h-9v-9h9zM108 171H90v-9h18zM99 162h-9v-9h9zM90 171h-9v-9h9zM90 162h-9v-9h9zM171 63h-18V45h18zM171 45h-18V27h18zM189 72h-18v-9h18zM189 63h-18V45h18zM153 63h-18V45h18zM153 45h-18V27h18zM90 45H72V27h18zM90 27H72V9h18zM108 63H90V45h18zM108 45H90V27h18zM72 36H54V18h18zM108 27H90V9h18zM126 27h-18V9h18zM144 27h-18V9h18zM108 207H90v-9h18zM99 198h-9v-9h9zM90 216h-9v-18h9zM90 198h-9v-9h9z"/><g><path d="M99 153H81v-18h18zM99 135H81v-18h18zM81 153H63v-18h18zM81 135H63v-18h18zM99 117H72V99h27z"/></g><path d="M90 189h-9v-9h9zM81 189H63v-18h18zM63 189h-9v-72h9zM180 81h-9v-9h9zM180 171h-27v-9h27zM171 162h-18v-9h18zM189 153h-36v-18h36z"/></g><g fill="#53ada2"><path d="M225 216h-9v-9h9zM225 225h-9v-9h9zM225 234h-9v-9h9zM225 243h-9v-9h9zM225 252h-9v-9h9zM225 261h-9v-9h9zM225 270h-9v-9h9zM225 279h-9v-9h9zM225 288h-9v-9h9zM225 297h-9v-9h9zM216 207h-9v-9h9zM225 207h-9v-9h9zM216 198h-9v-9h9zM216 216h-9v-9h9zM216 225h-9v-9h9zM216 234h-9v-9h9zM216 243h-9v-9h9zM216 252h-9v-9h9zM216 261h-9v-9h9zM216 270h-9v-9h9zM216 279h-9v-9h9zM216 288h-9v-9h9zM225 306h-9v-9h9zM225 315h-9v-9h9zM225 324h-9v-9h9zM225 333h-9v-9h9zM225 342h-9v-9h9zM225 351h-9v-9h9zM225 360h-9v-9h9zM225 369h-9v-9h9zM225 378h-9v-9h9zM225 387h-9v-9h9zM216 297h-9v-9h9zM216 306h-9v-9h9zM216 315h-9v-9h9zM216 324h-9v-9h9zM216 333h-9v-9h9zM216 342h-9v-9h9zM216 351h-9v-9h9zM216 360h-9v-9h9zM216 369h-9v-9h9zM216 378h-9v-9h9zM225 396h-9v-9h9zM216 387h-9v-9h9zM216 396h-9v-9h9zM216 405h-9v-9h9zM225 405h-9v-9h9zM216 414h-9v-9h9zM225 414h-9v-9h9zM207 216h-9v-9h9zM207 225h-9v-9h9zM207 234h-9v-9h9zM207 243h-9v-9h9zM207 252h-9v-9h9zM207 261h-9v-9h9zM207 270h-9v-9h9zM207 279h-9v-9h9zM207 288h-9v-9h9zM207 297h-9v-9h9zM198 207h-9v-9h9zM207 207h-9v-9h9zM207 180h-9v-9h9zM207 189h-9v-9h9zM207 198h-9v-9h9zM207 171h-9v-9h9zM207 144h-9v-9h9zM207 153h-9v-9h9zM207 162h-9v-9h9zM207 135h-9v-9h9zM207 126h-9v-9h9zM198 180h-9v-9h9zM198 189h-9v-9h9zM198 171h-9v-9h9zM198 144h-9v-9h9zM198 153h-9v-9h9zM198 162h-9v-9h9zM189 207h-9v-9h9zM189 198h-9v-9h9zM180 207h-9v-9h9zM180 198h-9v-9h9zM198 198h-9v-9h9zM198 216h-27v-9h27zM198 225h-9v-9h9zM198 234h-9v-9h9zM198 243h-9v-9h9zM198 252h-9v-9h9zM198 261h-9v-9h9zM198 270h-9v-9h9zM198 279h-9v-9h9zM198 288h-9v-9h9zM207 306h-9v-9h9zM207 315h-9v-9h9zM207 324h-9v-9h9zM207 333h-9v-9h9zM207 342h-9v-9h9zM207 351h-9v-9h9zM207 360h-9v-9h9zM207 369h-9v-9h9zM207 378h-9v-9h9zM207 387h-9v-9h9zM198 297h-9v-9h9zM198 306h-9v-9h9zM198 315h-9v-9h9zM198 324h-9v-9h9zM198 333h-9v-9h9zM198 342h-9v-9h9zM198 351h-9v-9h9zM198 360h-9v-9h9zM198 369h-9v-9h9zM198 378h-9v-9h9zM207 396h-9v-9h9zM198 387h-9v-9h9zM198 396h-9v-9h9zM198 405h-9v-9h9zM216 423h-9v-9h9zM189 171h-9v-9h9zM189 162h-9v-9h9zM180 162h-9v-9h9z"/></g><g fill="#fff159"><path d="M45 333H27v-9h18zM45 396h-9v-9h9zM9 324H0v-9h9zM36 324h-9v-9h9zM18 333H0v-9h18zM27 342h-9v-9h9zM45 360h-9v-9h9zM36 351H18v-9h18zM54 369H36v-9h18zM18 369H9v-9h9zM9 369H0v-18h9zM27 387h-9v-18h9zM36 387h-9v-9h9zM9 396H0v-9h9zM18 405H0v-9h18zM36 414H18v-9h18zM27 432H9v-9h18z"/></g><g fill="#0b6fae"><path d="M189 396h-18v-9h18zM189 387h-9v-9h9zM189 405h-27v-9h27zM153 396h-9v-9h9zM153 387h-9v-9h9zM144 396h-9v-9h9zM117 396h-9v-9h9zM117 387h-9v-9h9zM108 396h-9v-9h9zM81 396h-9v-9h9zM81 387h-9v-9h9zM117 459h-9v-36h9zM72 396h-9v-9h9zM189 414h-36v-9h36zM162 477h-45v-9h45zM162 486h-38v-9h38zM135 414h-9v-9h9zM135 405h-9v-9h9zM126 414h-9v-9h9zM99 414h-9v-9h9zM99 405h-9v-9h9zM90 414h-9v-9h9zM63 414h-9v-9h9zM63 405h-9v-27h9zM54 414h-9v-9h9zM90 459H36v-45h54zM90 486H45v-27h45zM189 468h-72v-54h72zM54 405h-9v-9h9z"/></g><g fill="#fff159"><path d="M171 189h-9v-9h9zM171 180h-9v-9h9zM162 180h-9v-9h9zM153 171h-9v-9h9zM153 162h-9v-9h9zM144 162h-9v-9h9zM153 216h-9v-18h9zM153 198h-9v-9h9zM144 198h-9v-9h9zM135 189h-9v-9h9zM135 180h-9v-9h9zM126 180h-9v-9h9zM117 171h-9v-9h9zM117 162h-9v-9h9zM108 162h-9v-9h9zM117 216h-9v-18h9zM117 198h-9v-9h9zM108 198h-9v-9h9zM99 189h-9v-9h9zM99 180h-9v-9h9zM90 180h-9v-9h9zM81 171h-9v-9h9zM81 162h-9v-9h9zM72 171h-9v-9h9zM72 162h-9v-9h9zM72 207h-9v-9h9zM81 216h-9v-27h9zM72 198H54v-9h18z"/></g><g fill="#fff159"><path d="M180 45h-9v-9h9zM180 36h-9v-9h9zM189 45h-9v-9h9zM198 63h-9v-9h9zM198 54h-9v-9h9zM207 63h-9v-9h9zM198 90h-9v-9h9zM180 108h-9v-9h9zM207 81h-9v-9h9zM207 72h-9v-9h9zM189 99h-9v-9h9zM189 90h-9v-9h9zM180 90h-9v-9h9zM198 81h-9v-9h9zM189 81h-9v-9h9zM198 72h-9v-9h9z"/></g><path fill="#0b6fae" d="M90 504h-9v-18h9zM81 504h-9v-18h9zM108 495h-9v-18h9zM99 504h-9v-36h9z"/><path fill="#fff159" d="M108 585h-9v-81h9zM126 567h-9v-63h9zM117 747h-9V504h9z"/><path fill="#00bcda" d="M135 585h-9v-81h9z"/><path fill="#0b6fae" d="M153 603h-9V486h9zM144 603h-9V486h9z"/><path fill="#62f0e9" d="M81 693h-9v-81h9zM90 693h-9v-81h9zM144 693h-9v-90h9zM153 693h-9v-90h9z"/><path fill="#0b6fae" d="M81 612h-9V504h9zM99 711h-9V603h9z"/><path fill="#00bcda" d="M126 738h-9V567h9z"/><path fill="#0b6fae" d="M135 720h-9V585h9z"/><path fill="#00bcda" d="M108 729h-9V585h9zM99 603h-9v-99h9z"/><path fill="#62f0e9" d="M171 621h-9V468h9zM72 630h-9V486h9zM63 630h-9V486h9zM162 621h-9V486h9z"/><path fill="#0b6fae" d="M90 612h-9V504h9z"/><g fill="#fff159"><path d="M198 135h-9v-9h9zM198 126h-9v-9h9zM207 117h-9v-9h9zM207 108h-9v-9h9zM198 117h-9v-9h9zM189 135h-9v-9h9zM189 126h-9v-9h9zM180 135h-9v-9h9z"/></g></svg>